<?xml version="1.0" encoding="utf-8"?>
<!-- Generator: Adobe Illustrator 16.0.0, SVG Export Plug-In . SVG Version: 6.00 Build 0)  -->
<!DOCTYPE svg PUBLIC "-//W3C//DTD SVG 1.1//EN" "http://www.w3.org/Graphics/SVG/1.1/DTD/svg11.dtd">
<svg version="1.1" id="Capa_1" xmlns="http://www.w3.org/2000/svg" xmlns:xlink="http://www.w3.org/1999/xlink" x="0px" y="0px"
	 width="575px" height="792px" viewBox="0 0 575 792" enable-background="new 0 0 575 792" xml:space="preserve">
<linearGradient id="SVGID_1_" gradientUnits="userSpaceOnUse" x1="69.4116" y1="112.7871" x2="122.1527" y2="140.8301">
	<stop  offset="0" style="stop-color:#56A7B2"/>
	<stop  offset="1" style="stop-color:#000000"/>
</linearGradient>
<path fill-rule="evenodd" clip-rule="evenodd" fill="url(#SVGID_1_)" d="M139.008,148.464
	c-26.106-48.652-65.049-50.449-74.547-34.132c6.738-20.318,71.818,34.434,26.052,30.241c7.001,2.312,14,4.621,21.002,6.929
	C120.679,150.491,129.843,149.478,139.008,148.464z"/>
<linearGradient id="SVGID_2_" gradientUnits="userSpaceOnUse" x1="64.3501" y1="113.5205" x2="125.5911" y2="139.5158">
	<stop  offset="0" style="stop-color:#63C3D1"/>
	<stop  offset="0.68" style="stop-color:#AFCA0B"/>
	<stop  offset="1" style="stop-color:#000000"/>
</linearGradient>
<path fill-rule="evenodd" clip-rule="evenodd" fill="url(#SVGID_2_)" d="M139.008,148.464
	c-26.106-48.652-65.049-50.449-74.547-34.132c10.83-22.944,78.261,36.074,26.052,30.241c7.001,2.312,16.872,4.406,23.874,6.716
	C123.551,150.276,129.843,149.478,139.008,148.464z"/>
<linearGradient id="SVGID_3_" gradientUnits="userSpaceOnUse" x1="77.4736" y1="114.9707" x2="120.6146" y2="139.8782">
	<stop  offset="0" style="stop-color:#2D425A"/>
	<stop  offset="0.6" style="stop-color:#6D9B30"/>
	<stop  offset="1" style="stop-color:#000000"/>
</linearGradient>
<path fill-rule="evenodd" clip-rule="evenodd" fill="url(#SVGID_3_)" d="M135.986,146.646
	c-21.149-39.412-48.506-38.687-52.159-36.87c14.899-1.593,53.802,39.338,16.729,35.943c5.67,1.871,7.486,1.518,13.158,3.39
	C121.137,148.289,128.562,147.47,135.986,146.646z"/>
<radialGradient id="SVGID_4_" cx="102.6836" cy="43.1899" r="67.3106" gradientUnits="userSpaceOnUse">
	<stop  offset="0" style="stop-color:#53555B"/>
	<stop  offset="1" style="stop-color:#000000"/>
</radialGradient>
<path fill-rule="evenodd" clip-rule="evenodd" fill="url(#SVGID_4_)" d="M123.656,22.771c-6.813,4.131-19.861,17.802-24.802,25.657
	c11.113,36.999,22.167,73.254,33.28,110.251c4.669,5.592,13.924,10.27,41.104,3.598C154.376,117.237,142.517,67.811,123.656,22.771z
	"/>
<radialGradient id="SVGID_5_" cx="138.8306" cy="162.8018" r="30.5693" gradientUnits="userSpaceOnUse">
	<stop  offset="0" style="stop-color:#AFCA0B"/>
	<stop  offset="1" style="stop-color:#000000"/>
</radialGradient>
<path fill-rule="evenodd" clip-rule="evenodd" fill="url(#SVGID_5_)" d="M138.718,73.686c-6.813,4.13-19.862,17.801-24.803,25.656
	c11.113,36.999,7.107,22.34,18.219,59.337c4.669,5.592,13.924,10.27,41.104,3.598C154.376,117.236,157.579,118.724,138.718,73.686z"
	/>
<linearGradient id="SVGID_6_" gradientUnits="userSpaceOnUse" x1="145.3857" y1="93.7773" x2="217.6793" y2="60.0663">
	<stop  offset="0" style="stop-color:#000000"/>
	<stop  offset="0.52" style="stop-color:#53555B"/>
	<stop  offset="1" style="stop-color:#FFFFFF"/>
</linearGradient>
<polygon fill-rule="evenodd" clip-rule="evenodd" fill="url(#SVGID_6_)" points="152.154,138.734 122.474,43.085 162.541,35.496 
	193.16,132.877 "/>
<linearGradient id="SVGID_7_" gradientUnits="userSpaceOnUse" x1="157.4951" y1="177.2031" x2="182.4817" y2="-26.2964">
	<stop  offset="0" style="stop-color:#000000"/>
	<stop  offset="0.32" style="stop-color:#53555B"/>
	<stop  offset="0.44" style="stop-color:#77476D"/>
	<stop  offset="0.59" style="stop-color:#775158"/>
	<stop  offset="1" style="stop-color:#E50046"/>
</linearGradient>
<polygon fill-rule="evenodd" clip-rule="evenodd" fill="url(#SVGID_7_)" points="188.641,133.392 144.142,39.119 163.285,35.534 
	193.259,132.745 "/>
<radialGradient id="SVGID_8_" cx="163.8525" cy="112.731" r="29.2767" gradientUnits="userSpaceOnUse">
	<stop  offset="0" style="stop-color:#000000"/>
	<stop  offset="0.47" style="stop-color:#000000"/>
	<stop  offset="0.74" style="stop-color:#48494C"/>
	<stop  offset="1" style="stop-color:#FFFFFF"/>
</radialGradient>
<path fill-rule="evenodd" clip-rule="evenodd" fill="url(#SVGID_8_)" d="M158.606,92.689c9.876-2.893,20.92,3.377,24.662,14.004
	c3.741,10.626-1.233,21.589-11.11,24.483c-9.876,2.894-20.92-3.377-24.662-14.003C143.755,106.548,148.729,95.584,158.606,92.689z"
	/>
<radialGradient id="SVGID_9_" cx="162.6572" cy="113.5737" r="23.8668" gradientUnits="userSpaceOnUse">
	<stop  offset="0" style="stop-color:#000000"/>
	<stop  offset="0.67" style="stop-color:#48494C"/>
	<stop  offset="0.81" style="stop-color:#BFBABC"/>
	<stop  offset="1" style="stop-color:#FFFFFF"/>
</radialGradient>
<path fill-rule="evenodd" clip-rule="evenodd" fill="url(#SVGID_9_)" d="M157.877,93.478c8.791-2.731,18.669,3.364,22.063,13.612
	c3.395,10.249-0.982,20.774-9.772,23.507c-8.79,2.732-18.67-3.365-22.063-13.613S149.087,96.209,157.877,93.478z"/>
<radialGradient id="SVGID_10_" cx="162.3945" cy="113.5396" r="23.866" gradientUnits="userSpaceOnUse">
	<stop  offset="0" style="stop-color:#000000"/>
	<stop  offset="0.47" style="stop-color:#000000"/>
	<stop  offset="0.74" style="stop-color:#48494C"/>
	<stop  offset="1" style="stop-color:#FFFFFF"/>
</radialGradient>
<path fill-rule="evenodd" clip-rule="evenodd" fill="url(#SVGID_10_)" d="M158.172,96.755c7.818-2.388,16.591,2.894,19.592,11.794
	c3.001,8.899-0.905,18.053-8.724,20.44c-7.816,2.388-16.588-2.895-19.591-11.794C146.45,108.295,150.355,99.142,158.172,96.755z"/>
<radialGradient id="SVGID_11_" cx="160.4243" cy="114.9395" r="18.7887" gradientUnits="userSpaceOnUse">
	<stop  offset="0" style="stop-color:#000000"/>
	<stop  offset="0.31" style="stop-color:#48494C"/>
	<stop  offset="0.55" style="stop-color:#BFBABC"/>
	<stop  offset="1" style="stop-color:#FFFFFF"/>
</radialGradient>
<path fill-rule="evenodd" clip-rule="evenodd" fill="url(#SVGID_11_)" d="M158.22,101.394c5.573-1.786,11.855,2.261,14.03,9.04
	c2.174,6.778-0.582,13.725-6.154,15.512c-5.573,1.788-11.855-2.26-14.03-9.038C149.892,110.128,152.648,103.182,158.22,101.394z"/>
<radialGradient id="SVGID_12_" cx="164.1982" cy="113.9424" r="10.1494" gradientUnits="userSpaceOnUse">
	<stop  offset="0" style="stop-color:#FFFFFF"/>
	<stop  offset="0.57" style="stop-color:#8B8A8E"/>
	<stop  offset="1" style="stop-color:#000000"/>
</radialGradient>
<path fill-rule="evenodd" clip-rule="evenodd" fill="url(#SVGID_12_)" d="M158.784,109.77c2.097-0.742,4.631,1.01,5.659,3.915
	c1.027,2.903,0.16,5.859-1.938,6.602c-2.097,0.741-4.63-1.011-5.658-3.915C155.82,113.469,156.687,110.513,158.784,109.77z"/>
<path fill-rule="evenodd" clip-rule="evenodd" fill="#FFFFFF" d="M156.567,112.866c1.449-0.464,3.677-0.261,6.016,0.039
	c-3.526,1.178-5.499,2.153-5.914,2.931C156.306,114.87,156.272,113.88,156.567,112.866z"/>
<linearGradient id="SVGID_13_" gradientUnits="userSpaceOnUse" x1="173.084" y1="116.1548" x2="158.5618" y2="115.3937">
	<stop  offset="0" style="stop-color:#FFFFFF"/>
	<stop  offset="0.45" style="stop-color:#BFBABC"/>
	<stop  offset="0.69" style="stop-color:#48494C"/>
	<stop  offset="1" style="stop-color:#000000"/>
</linearGradient>
<path fill-rule="evenodd" clip-rule="evenodd" fill="url(#SVGID_13_)" d="M171.478,121.465c-2.283-1.231-4.567-2.462-6.851-3.694
	c0.507-1.216,0.42-2.636-0.262-4.257c2.699-0.929,5.397-1.857,8.095-2.785C173.364,114.811,172.962,118.36,171.478,121.465z"/>
<radialGradient id="SVGID_14_" cx="148.0518" cy="66.2417" r="28.8477" gradientUnits="userSpaceOnUse">
	<stop  offset="0" style="stop-color:#000000"/>
	<stop  offset="0.47" style="stop-color:#000000"/>
	<stop  offset="0.78" style="stop-color:#48494C"/>
	<stop  offset="1" style="stop-color:#FFFFFF"/>
</radialGradient>
<path fill-rule="evenodd" clip-rule="evenodd" fill="url(#SVGID_14_)" d="M140.88,46.85c8.705-4.07,19.788,0.785,24.75,10.843
	s1.927,21.514-6.778,25.583c-8.704,4.071-19.787-0.784-24.749-10.842C129.141,62.376,132.175,50.92,140.88,46.85z"/>
<linearGradient id="SVGID_15_" gradientUnits="userSpaceOnUse" x1="134.3564" y1="70.8096" x2="178.9004" y2="53.7108">
	<stop  offset="0" style="stop-color:#000000"/>
	<stop  offset="0.52" style="stop-color:#53555B"/>
	<stop  offset="1" style="stop-color:#FFFFFF"/>
</linearGradient>
<path fill-rule="evenodd" clip-rule="evenodd" fill="url(#SVGID_15_)" d="M140.319,47.718c7.725-3.777,17.709,1.048,22.297,10.773
	c4.587,9.727,2.043,20.677-5.683,24.454c-7.725,3.777-17.709-1.048-22.296-10.774S132.594,51.495,140.319,47.718z"/>
<radialGradient id="SVGID_16_" cx="147.2075" cy="67.1934" r="23.3685" gradientUnits="userSpaceOnUse">
	<stop  offset="0" style="stop-color:#000000"/>
	<stop  offset="0.47" style="stop-color:#000000"/>
	<stop  offset="0.74" style="stop-color:#48494C"/>
	<stop  offset="1" style="stop-color:#FFFFFF"/>
</radialGradient>
<path fill-rule="evenodd" clip-rule="evenodd" fill="url(#SVGID_16_)" d="M141.058,50.924c6.876-3.316,15.723,0.838,19.757,9.277
	c4.033,8.44,1.727,17.974-5.149,21.291c-6.876,3.318-15.723-0.837-19.756-9.276C131.876,63.776,134.181,54.241,141.058,50.924z"/>
<radialGradient id="SVGID_17_" cx="145.686" cy="68.6733" r="18.3024" gradientUnits="userSpaceOnUse">
	<stop  offset="0" style="stop-color:#000000"/>
	<stop  offset="0.31" style="stop-color:#48494C"/>
	<stop  offset="0.55" style="stop-color:#BFBABC"/>
	<stop  offset="1" style="stop-color:#FFFFFF"/>
</radialGradient>
<path fill-rule="evenodd" clip-rule="evenodd" fill="url(#SVGID_17_)" d="M141.76,55.51c4.891-2.45,11.263,0.788,14.232,7.229
	c2.969,6.442,1.411,13.652-3.479,16.102c-4.889,2.45-11.262-0.788-14.23-7.229C135.313,65.17,136.871,57.959,141.76,55.51z"/>
<radialGradient id="SVGID_18_" cx="149.0718" cy="67.1167" r="10.0081" gradientUnits="userSpaceOnUse">
	<stop  offset="0" style="stop-color:#FFFFFF"/>
	<stop  offset="0.57" style="stop-color:#8B8A8E"/>
	<stop  offset="1" style="stop-color:#000000"/>
</radialGradient>
<path fill-rule="evenodd" clip-rule="evenodd" fill="url(#SVGID_18_)" d="M143.47,63.729c1.83-0.992,4.418,0.434,5.779,3.181
	c1.36,2.747,0.979,5.779-0.851,6.77c-1.83,0.991-4.417-0.434-5.778-3.182C141.258,67.75,141.639,64.719,143.47,63.729z"/>
<path fill-rule="evenodd" clip-rule="evenodd" fill="#FFFFFF" d="M141.862,67.063c1.272-0.635,3.357-0.708,5.558-0.697
	c-3.087,1.596-4.77,2.802-5.043,3.621C141.907,69.078,141.735,68.103,141.862,67.063z"/>
<linearGradient id="SVGID_19_" gradientUnits="userSpaceOnUse" x1="157.5703" y1="68.2876" x2="144.0734" y2="69.4684">
	<stop  offset="0" style="stop-color:#FFFFFF"/>
	<stop  offset="0.45" style="stop-color:#BFBABC"/>
	<stop  offset="0.69" style="stop-color:#48494C"/>
	<stop  offset="1" style="stop-color:#000000"/>
</linearGradient>
<path fill-rule="evenodd" clip-rule="evenodd" fill="url(#SVGID_19_)" d="M156.846,73.75c-2.283-0.94-4.565-1.879-6.848-2.819
	c0.296-1.265,0.013-2.658-0.846-4.181c2.36-1.248,4.718-2.496,7.077-3.745C157.641,66.935,157.774,70.495,156.846,73.75z"/>
<linearGradient id="SVGID_20_" gradientUnits="userSpaceOnUse" x1="121.3633" y1="42.8247" x2="162.1872" y2="17.3151">
	<stop  offset="0" style="stop-color:#000000"/>
	<stop  offset="0.52" style="stop-color:#53555B"/>
	<stop  offset="1" style="stop-color:#FFFFFF"/>
</linearGradient>
<path fill-rule="evenodd" clip-rule="evenodd" fill="url(#SVGID_20_)" d="M122.542,43.088c13.568-2.482,27.138-4.965,40.706-7.447
	c-2.123-3.402-5.613-8.441-9.819-11.436c-14.761-9.435-33.673-5.157-34.593,6.111C119.225,34.886,120.936,38.859,122.542,43.088z"/>
<linearGradient id="SVGID_21_" gradientUnits="userSpaceOnUse" x1="123.4648" y1="41.0225" x2="162.6604" y2="17.4714">
	<stop  offset="0" style="stop-color:#000000"/>
	<stop  offset="0.52" style="stop-color:#53555B"/>
	<stop  offset="1" style="stop-color:#FFFFFF"/>
</linearGradient>
<path fill-rule="evenodd" clip-rule="evenodd" fill="url(#SVGID_21_)" d="M122.542,43.088c13.568-2.482,27.138-4.965,40.706-7.447
	c-2.123-3.402-5.613-8.441-9.819-11.436c-14.761-9.435-33.673-5.157-34.593,6.111C119.225,34.886,120.936,38.859,122.542,43.088z"/>
<linearGradient id="SVGID_22_" gradientUnits="userSpaceOnUse" x1="138.8564" y1="31.4604" x2="167.2112" y2="20.0044">
	<stop  offset="0" style="stop-color:#53555B"/>
	<stop  offset="0.58" style="stop-color:#C9304B"/>
	<stop  offset="1" style="stop-color:#FFCC00"/>
</linearGradient>
<path fill-rule="evenodd" clip-rule="evenodd" fill="url(#SVGID_22_)" d="M144.203,39.125l19.045-3.484
	c-2.123-3.402-5.613-8.441-9.819-11.436c-6.005-3.838-12.698-5.407-18.587-5.159L144.203,39.125z"/>
<linearGradient id="SVGID_23_" gradientUnits="userSpaceOnUse" x1="171.9253" y1="126.4727" x2="175.1491" y2="163.3205">
	<stop  offset="0" style="stop-color:#000000"/>
	<stop  offset="0.41" style="stop-color:#3D3C3E"/>
	<stop  offset="1" style="stop-color:#A71680"/>
</linearGradient>
<path fill-rule="evenodd" clip-rule="evenodd" fill="url(#SVGID_23_)" d="M151.921,138.441c13.65-1.949,27.681-3.803,41.333-5.754
	c0.955,4.584,1.212,8.712-1.117,14.755c-7.536,16.493-30.289,22.31-37.595,4.227C153.146,146.926,152.414,142.755,151.921,138.441z"
	/>
<linearGradient id="SVGID_24_" gradientUnits="userSpaceOnUse" x1="188.957" y1="118.3926" x2="192.0148" y2="153.3426">
	<stop  offset="0" style="stop-color:#000000"/>
	<stop  offset="0.41" style="stop-color:#3D3C3E"/>
	<stop  offset="1" style="stop-color:#A71680"/>
</linearGradient>
<path fill-rule="evenodd" clip-rule="evenodd" fill="url(#SVGID_24_)" d="M188.667,133.339c1.533-0.216,3.062-0.433,4.586-0.652
	c0.955,4.584,1.212,8.712-1.117,14.755c-0.937,2.051-2.11,3.936-3.458,5.631L188.667,133.339z"/>
<path fill-rule="evenodd" clip-rule="evenodd" d="M132.051,24.024c2.372-2.49,6.309-2.351,8.792,0.311
	c2.482,2.662,2.573,6.839,0.202,9.33c-2.373,2.491-6.309,2.352-8.792-0.31C129.77,30.693,129.68,26.515,132.051,24.024z"/>
<radialGradient id="SVGID_25_" cx="136.312" cy="29.1792" r="4.5471" gradientUnits="userSpaceOnUse">
	<stop  offset="0" style="stop-color:#000000"/>
	<stop  offset="0.67" style="stop-color:#48494C"/>
	<stop  offset="0.81" style="stop-color:#BFBABC"/>
	<stop  offset="1" style="stop-color:#FFFFFF"/>
</radialGradient>
<path fill-rule="evenodd" clip-rule="evenodd" fill="url(#SVGID_25_)" d="M133.702,25.793c1.501-1.576,3.992-1.489,5.564,0.197
	c1.572,1.685,1.629,4.329,0.129,5.906c-1.501,1.577-3.994,1.489-5.566-0.196C132.258,30.015,132.201,27.371,133.702,25.793z"/>
<path fill-rule="evenodd" clip-rule="evenodd" fill="#FFFFFF" d="M155.586,153.952c-1.066,3.679-10.476,5.553-18.087,5.726
	c6.676,0.591,13.342,1.243,20.727-2.074C157.346,156.386,156.466,155.169,155.586,153.952z"/>
<linearGradient id="SVGID_26_" gradientUnits="userSpaceOnUse" x1="55.1724" y1="101.3486" x2="122.2742" y2="137.0273">
	<stop  offset="0" style="stop-color:#63C3D1"/>
	<stop  offset="1" style="stop-color:#AFCA0B"/>
</linearGradient>
<path fill-rule="evenodd" clip-rule="evenodd" fill="url(#SVGID_26_)" d="M117.157,134.348c1.898,1.258,2.533,0.668,0-4.392v-2.273
	c11.304,2.086,16.411,8.927,12.604,22.603c13.287-17.083,15.247-30.063-12.604-32.249v-0.417
	c26.381,0.765,25.871,14.869,15.121,34.049c17.452-10.783,11.876-25.149-11.423-25.659c15.496-0.953,22.009,3.9,22.877,10.418v3.231
	c-0.594,4.859-3.696,10.21-8.164,14.633c5.958,13.815-0.182,15.007-18.412,3.585V146.03l6.583,4.474l-6.583-6.046v-4.519
	c0.57,1.366,0.821,2.399,0.754,3.101c2.573,1.956,5.147,3.913,7.722,5.869c9.396-6.458-6.953-25.532-8.476-10.563V134.348z
	 M103.549,148.639c-21.598-16.871,42.568-94.106-79.68-32.419c124.924-66.121,63.062,17.828,87.148,35.836
	c6.379,3.83,6.47,0.952,5.662-2.885c-21.45-15.734-6.039-67.731-62.574-45.901c43.433-14.638,45.042,11.214,49.96,33.862
	c-8.287-6.473-16.574-12.946-24.861-19.42c9.418,7.043,18.836,14.085,28.257,21.127c2.495,1.499,2.531,0.373,2.214-1.128
	c-8.389-6.154-16.775-12.306-25.165-18.459c9.309,6.327,18.618,12.653,27.927,18.98c-2.496-2.293-4.992-4.586-7.487-6.878
	c2.742,2.085,5.485,4.169,8.228,6.254l1.613,0.537c-2.597-4.244-5.194-8.489-7.792-12.734c2.343,1.763,7.494,7.168,10.159,8.936
	v3.997c-0.043,0.43-0.077,0.882-0.095,1.369c0.032,0.076,0.064,0.15,0.095,0.225v4.519l-0.344-0.316
	c-1.164,0.093-3.242-0.768-6.238-2.585l6.583,4.473v11.849C113.192,155.394,108.658,152.316,103.549,148.639L103.549,148.639z
	 M117.157,129.956v-2.273c-0.427-0.08-0.863-0.152-1.308-0.217C116.357,128.396,116.789,129.221,117.157,129.956L117.157,129.956z
	 M117.157,118.037v-0.417c-2.243-0.064-4.682-0.033-7.324,0.101C112.477,117.753,114.912,117.86,117.157,118.037z"/>
<path fill-rule="evenodd" clip-rule="evenodd" fill="#63C3D1" d="M186.735,122.64c0.867,0.282,1.126-0.978,0.25-1.061
	L186.735,122.64L186.735,122.64z M166.125,112.05c0.865,0.281,1.125-0.979,0.248-1.062L166.125,112.05L166.125,112.05z
	 M170.125,100.249C166.613,97.53,172.185,104.224,170.125,100.249L170.125,100.249z M161.241,141.999
	c-0.488,1.363,1.455,1.028,1.115,0.014C161.89,141.861,161.488,141.794,161.241,141.999L161.241,141.999z M152.931,144.426
	c-0.409,0.159-0.752,0.738-0.668,1.213l0.951,0.223c0.068-0.374,0.409-0.317,0.431-0.769
	C153.365,144.96,153.052,144.862,152.931,144.426L152.931,144.426z M174.932,123.476c-0.068,0.379,0.151,0.583,0.597,0.642
	c0.103-0.385,0.447-0.379,0.465-0.896c-0.115-0.133-0.281-0.229-0.565-0.252C174.99,123.197,175.513,123.96,174.932,123.476
	L174.932,123.476z M175.289,119.815c0.357,0.048,0.301,0.348,0.655,0.398c0.255-0.315,0.379-0.817-0.016-1.001
	c-0.009,0.277,0.127,0.708-0.282,0.686c-0.188-0.126-0.114-0.401-0.246-0.559L175.289,119.815L175.289,119.815z M125.156,77.365
	c-0.159-0.036-0.24-0.116-0.322-0.2c-0.011,0.417-0.291,0.132-0.385,0.035l-0.14,0.591c0.161,0.106,0.258,0.246,0.417,0.348
	C124.794,77.76,125.136,77.814,125.156,77.365L125.156,77.365z M156.788,117.233c0.072,0.016,0.161-0.065,0.03-0.118
	c-0.615,0.093-0.001,1.234,0.274,0.435C156.907,117.497,156.679,117.471,156.788,117.233L156.788,117.233z M130.623,159.682
	l0.243,0.554c0.076-0.145,0.225-0.185,0.23-0.444C130.774,159.708,130.817,159.935,130.623,159.682L130.623,159.682z
	 M138.449,162.517c1.183-0.76,0.971-2.702-0.074-3.392C135.233,158.654,136.192,163.958,138.449,162.517L138.449,162.517z
	 M152.282,86.338c-0.216,0.003-0.994,0.104-0.172,0.205c0.053-0.136,0.214-0.084,0.385-0.036
	C152.78,85.257,152.376,86.15,152.282,86.338L152.282,86.338z M112.71,69.208c-0.094,0.358-0.035,0.627,0.187,0.792
	c0.371-0.187,0.984-0.216,0.816-0.809c-0.317-0.036-0.368-0.449-0.8-0.313c-0.215,0.401,0.509,0.226,0.358,0.59
	C112.977,69.448,113.068,69.188,112.71,69.208L112.71,69.208z M118.71,50.509c-0.342-0.002-0.608,0.102-0.822,0.304
	C118.044,51.231,118.67,51.181,118.71,50.509L118.71,50.509z M110.28,89.737c0.144-0.274,0.421-0.938,0.053-0.737
	c0.271,0.418-0.31,0.138-0.357-0.082C109.849,89.33,110.127,89.495,110.28,89.737L110.28,89.737z M102.246,116.583
	c0.34-0.323,0.507-0.866,0.014-1.121c0.013,0.456-0.538-0.004-0.674,0.22C101.361,116.256,101.645,116.517,102.246,116.583
	L102.246,116.583z M120.407,57.648c-0.298-0.021-0.202-0.278-0.555-0.257l-0.25,1.068c0.731,0.248,1.159-0.888,0.318-0.304
	c0.021-0.576,0.207-0.077,0.315-0.298C120.041,57.753,120.322,57.743,120.407,57.648L120.407,57.648z M130.496,145.295
	c0.208-0.253,0.098-1.031-0.487-1.113c-0.31,0.165-0.537,0.446-0.698,0.836C129.484,145.25,130.238,145.425,130.496,145.295
	L130.496,145.295z M145.491,99.351c0.194-0.19,0.545-0.569,0.341-0.915C145.113,98.115,144.919,99.185,145.491,99.351
	L145.491,99.351z M108.425,121.147c-0.184,0.041-0.125,0.455-0.344,0.414c-0.103-0.301,0.401-0.363,0.11-0.469
	c-0.08,0.177-0.286,0.026-0.358-0.084c-0.049,0.088-0.058,0.234-0.175,0.215C107.43,122.285,108.958,121.698,108.425,121.147
	L108.425,121.147z M120.214,118.786c0.149-0.18,0.407-0.222,0.405-0.649c-0.407,0.045-0.306-0.109-0.623-0.025
	C119.936,118.419,119.88,118.726,120.214,118.786L120.214,118.786z M121.253,130.89c0-0.38,0.283-0.295,0.284-0.676
	C120.534,130.206,121.146,130.577,121.253,130.89L121.253,130.89z M118.58,72.952c-0.418-0.066-0.601,0.229-0.76,0.573
	C118.134,74.441,119.195,73.615,118.58,72.952L118.58,72.952z M190.737,110.841C187.227,108.122,192.797,114.815,190.737,110.841
	L190.737,110.841z M181.852,152.589c-0.486,1.364,1.456,1.028,1.116,0.015C182.502,152.452,182.101,152.386,181.852,152.589
	L181.852,152.589z M173.542,155.017c-0.407,0.16-0.75,0.739-0.667,1.213l0.951,0.223c0.069-0.374,0.409-0.317,0.431-0.769
	C173.977,155.551,173.665,155.455,173.542,155.017L173.542,155.017z M195.543,134.067c-0.066,0.379,0.151,0.583,0.599,0.641
	c0.103-0.383,0.446-0.379,0.465-0.895c-0.115-0.133-0.281-0.229-0.567-0.253C195.604,133.789,196.127,134.551,195.543,134.067
	L195.543,134.067z M195.902,130.407c0.355,0.047,0.301,0.349,0.653,0.398c0.255-0.316,0.38-0.818-0.015-1.002
	c-0.01,0.277,0.127,0.708-0.282,0.685c-0.188-0.126-0.113-0.401-0.245-0.558L195.902,130.407L195.902,130.407z M145.769,87.957
	c-0.158-0.037-0.239-0.117-0.323-0.202c-0.009,0.417-0.291,0.131-0.385,0.036l-0.139,0.592c0.16,0.106,0.259,0.246,0.416,0.346
	C145.408,88.351,145.75,88.407,145.769,87.957L145.769,87.957z M177.4,127.824c0.073,0.016,0.163-0.065,0.03-0.118
	c-0.614,0.092-0.002,1.234,0.274,0.435C177.52,128.089,177.291,128.063,177.4,127.824L177.4,127.824z M151.237,170.274l-0.111,0.47
	l0.352,0.082c0.075-0.144,0.225-0.185,0.231-0.444C151.387,170.3,151.429,170.526,151.237,170.274L151.237,170.274z
	 M159.062,173.107c1.183-0.758,0.973-2.7-0.075-3.391C155.845,169.244,156.805,174.549,159.062,173.107L159.062,173.107z
	 M172.895,96.928c-0.217,0.004-0.992,0.107-0.173,0.205c0.053-0.136,0.215-0.083,0.384-0.034
	C173.392,95.85,172.99,96.742,172.895,96.928L172.895,96.928z M133.322,79.799c-0.094,0.357-0.035,0.627,0.188,0.792
	c0.372-0.188,0.984-0.216,0.817-0.809c-0.318-0.036-0.37-0.449-0.801-0.313c-0.215,0.402,0.51,0.225,0.358,0.592
	C133.59,80.038,133.681,79.78,133.322,79.799L133.322,79.799z M139.322,61.099c-0.341-0.002-0.608,0.104-0.82,0.305
	C138.657,61.823,139.281,61.772,139.322,61.099L139.322,61.099z M130.892,100.328c0.145-0.274,0.421-0.938,0.052-0.735
	c0.274,0.416-0.309,0.135-0.354-0.083C130.461,99.921,130.74,100.088,130.892,100.328L130.892,100.328z M122.858,127.175
	c0.34-0.324,0.507-0.867,0.014-1.121c0.013,0.454-0.54-0.006-0.675,0.218C121.974,126.848,122.258,127.108,122.858,127.175
	L122.858,127.175z M141.021,68.239c-0.298-0.019-0.205-0.276-0.556-0.256l-0.249,1.065c0.729,0.25,1.158-0.885,0.317-0.302
	c0.021-0.575,0.208-0.077,0.316-0.299C140.651,68.342,140.934,68.333,141.021,68.239L141.021,68.239z M151.107,155.887
	c0.209-0.255,0.098-1.031-0.486-1.112c-0.31,0.164-0.536,0.445-0.699,0.835C150.097,155.841,150.85,156.015,151.107,155.887
	L151.107,155.887z M166.104,109.942c0.192-0.19,0.543-0.57,0.34-0.915C165.726,108.707,165.531,109.774,166.104,109.942
	L166.104,109.942z M129.038,131.739c-0.185,0.04-0.128,0.452-0.347,0.415c-0.102-0.301,0.402-0.366,0.111-0.469
	c-0.08,0.178-0.284,0.024-0.356-0.084c-0.048,0.088-0.06,0.231-0.177,0.213C128.042,132.877,129.571,132.289,129.038,131.739
	L129.038,131.739z M140.826,129.377c0.149-0.18,0.407-0.222,0.405-0.649c-0.406,0.045-0.304-0.109-0.623-0.024
	C140.548,129.011,140.493,129.316,140.826,129.377L140.826,129.377z M141.865,141.481c0-0.381,0.285-0.295,0.285-0.677
	C141.146,140.798,141.758,141.168,141.865,141.481L141.865,141.481z M139.19,83.543c-0.416-0.066-0.599,0.229-0.758,0.573
	C138.747,85.032,139.809,84.206,139.19,83.543z"/>
<polygon fill-rule="evenodd" clip-rule="evenodd" fill="#FFFFFF" points="157.376,173.931 156.182,158.742 141.109,159.672 
	156.167,158.516 155.368,143.404 156.441,158.526 171.636,157.664 156.482,158.708 "/>
<polygon fill-rule="evenodd" clip-rule="evenodd" fill="#FFFFFF" points="173.348,122.093 171.89,103.556 153.493,104.69 
	171.873,103.28 170.898,84.835 172.206,103.293 190.752,102.24 172.256,103.514 "/>
<polygon fill-rule="evenodd" clip-rule="evenodd" fill="#FFFFFF" points="177.518,119.344 176.061,100.807 157.663,101.94 
	176.042,100.53 175.067,82.087 176.375,100.544 194.921,99.49 176.426,100.764 "/>
<polygon fill-rule="evenodd" clip-rule="evenodd" fill="#FFFFFF" points="182.93,93.634 182.003,81.84 170.299,82.56 
	181.991,81.664 181.372,69.931 182.203,81.673 194.002,81.002 182.236,81.813 "/>
<polygon fill-rule="evenodd" clip-rule="evenodd" fill="#FFFFFF" points="169.153,104.411 168.227,92.618 156.523,93.339 
	168.215,92.442 167.595,80.708 168.427,92.451 180.226,91.781 168.459,92.591 "/>
<polygon fill-rule="evenodd" clip-rule="evenodd" fill="#FFFFFF" points="147.409,163.962 146.482,152.168 134.779,152.89 
	146.471,151.992 145.851,140.259 146.682,152.002 158.481,151.331 146.714,152.142 "/>
<polygon fill-rule="evenodd" clip-rule="evenodd" fill="#FFFFFF" points="155.969,161.365 155.042,149.571 143.338,150.292 
	155.031,149.396 154.411,137.662 155.242,149.404 167.042,148.734 155.275,149.545 "/>
<polygon fill-rule="evenodd" clip-rule="evenodd" fill="#FFFFFF" points="159.458,165.401 156.834,132.006 123.691,134.048 
	156.802,131.508 155.045,98.281 157.401,131.533 190.812,129.635 157.492,131.931 "/>
<polygon fill-rule="evenodd" clip-rule="evenodd" fill="#AFCA0B" points="143.6,174.393 140.977,140.996 107.833,143.04 
	140.943,140.498 139.187,107.272 141.542,140.523 174.954,138.625 141.634,140.92 "/>
<polygon fill-rule="evenodd" clip-rule="evenodd" fill="#AFCA0B" points="123.857,157.891 121.233,124.497 88.09,126.538 
	121.2,123.998 119.444,90.771 121.8,124.022 155.21,122.125 121.891,124.42 "/>
<polygon fill-rule="evenodd" clip-rule="evenodd" fill="#FFCC00" points="209.703,65.163 208.57,50.744 194.26,51.625 
	208.556,50.528 207.797,36.183 208.814,50.539 223.24,49.719 208.854,50.711 "/>
<polygon fill-rule="evenodd" clip-rule="evenodd" fill="#E50046" points="181.125,74.388 179.253,50.578 155.625,52.034 
	179.23,50.223 177.978,26.533 179.658,50.241 203.479,48.887 179.723,50.524 "/>
<polygon fill-rule="evenodd" clip-rule="evenodd" fill="#E50046" points="185.016,46.611 184.412,38.935 176.794,39.404 
	184.405,38.821 184.001,31.183 184.543,38.826 192.223,38.39 184.563,38.918 "/>
<polygon fill-rule="evenodd" clip-rule="evenodd" fill="#E50046" points="175.985,57.512 174.38,37.074 154.095,38.323 
	174.359,36.768 173.283,16.433 174.726,36.783 195.174,35.622 174.781,37.027 "/>
</svg>
